<svg xmlns="http://www.w3.org/2000/svg" viewBox="0 0 240 240">
  <defs><linearGradient id="e" x1="0" y1="0" x2="0" y2="1">
    <stop offset="0" stop-color="#FFD79A"/><stop offset=".45" stop-color="#FFB25A"/><stop offset="1" stop-color="#FF6A2B"/>
  </linearGradient></defs>
  <circle cx="112" cy="34" r="10" fill="none" stroke="#F0C060" stroke-width="7"/>
  <rect x="42" y="58" width="120" height="132" rx="18" fill="url(#e)"/>
  <rect x="60" y="74" width="84" height="8" rx="4" fill="#0A0D13" opacity=".88"/>
  <rect x="60" y="88" width="84" height="8" rx="4" fill="#0A0D13" opacity=".88"/>
  <rect x="60" y="106" width="84" height="68" rx="11" fill="#0A0D13"/>
  <circle cx="102" cy="140" r="22" fill="#10141d"/>
  <circle cx="102" cy="140" r="22" fill="none" stroke="#5FA6C9" stroke-width="6"/>
  <path d="M94 131 a11 11 0 1 0 15 17 a15 15 0 0 1 -15 -17" fill="#7FB8D9"/>
  <circle cx="113" cy="130" r="4" fill="#FFD79A"/>
  <path d="M162 92 h12 a28 28 0 0 1 0 56 h-12" fill="none" stroke="url(#e)" stroke-width="17" stroke-linecap="round"/>
</svg>
